<svg id="Capa_1" data-name="Capa 1" xmlns="http://www.w3.org/2000/svg" viewBox="0 0 50.69 49.66"><defs><style>.cls-1{fill:#333;}.cls-2{fill:#fff;}</style></defs><title>icon_yb</title><path class="cls-1" d="M25.29,49A24.08,24.08,0,0,1,1.23,24.84C1.26,12.48,10.54.74,25.28.69c14.17,0,24.19,10.89,24.18,24.15A23.9,23.9,0,0,1,25.29,49m-.17-14.19c3.25-.16,6.48-.28,9.7-.47,2.65-.15,3.66-1.07,4.06-3.64a37.33,37.33,0,0,0,0-11.7c-.38-2.45-1.54-3.58-4-3.61q-9.45-.11-18.91,0c-2.64,0-3.67,1-4.14,3.56a35.59,35.59,0,0,0,0,12.05,3.51,3.51,0,0,0,3.72,3.35c3.18.19,6.37.31,9.55.47"/><path class="cls-2" d="M25.12,34.77c-3.18-.16-6.37-.28-9.55-.47A3.51,3.51,0,0,1,11.85,31a35.59,35.59,0,0,1,0-12c.47-2.58,1.5-3.54,4.14-3.56q9.45-.11,18.91,0c2.45,0,3.61,1.16,4,3.61a37.63,37.63,0,0,1,0,11.7c-.41,2.57-1.42,3.49-4.06,3.64-3.23.19-6.46.31-9.71.47m5.39-10.21L22,20.13V29l8.51-4.42"/><path class="cls-1" d="M30.51,24.56,22,29V20.13l8.51,4.43"/></svg>