<?xml version="1.0" encoding="utf-8"?>
<!-- Generator: Adobe Illustrator 22.0.0, SVG Export Plug-In . SVG Version: 6.00 Build 0)  -->
<svg version="1.1" id="Capa_1" xmlns="http://www.w3.org/2000/svg" xmlns:xlink="http://www.w3.org/1999/xlink" x="0px" y="0px"
	 viewBox="0 0 50.7 49.7" style="enable-background:new 0 0 50.7 49.7;" xml:space="preserve">
<style type="text/css">
	.st0{fill:#333333;}
	.st1{fill:#FFFFFF;}
</style>
<title>icon_wa</title>
<path class="st0" d="M1.3,25.1C1,11.8,11.5,0.8,24.8,0.5S49.1,10.7,49.4,24c0,0.3,0,0.7,0,1c0.1,13.2-10.5,24-23.7,24.2
	c-0.2,0-0.3,0-0.5,0c-13.2,0.1-23.9-10.6-24-23.8C1.3,25.3,1.3,25.2,1.3,25.1 M12.6,37.8c2.2-0.7,4.2-1.3,6.1-2
	c0.7-0.3,1.6-0.3,2.3,0.1c8.6,3.8,18.5-2.4,18.7-11.7c0.2-7.3-5.6-13.4-12.9-13.6c-7.3-0.2-13.4,5.6-13.6,12.9
	c-0.1,2.2,0.4,4.4,1.4,6.3c0.2,0.5,0.3,1.1,0.1,1.7C14.1,33.5,13.4,35.5,12.6,37.8"/>
<path class="st1" d="M12.6,37.8c0.8-2.2,1.5-4.2,2.1-6.2c0.1-0.6,0.1-1.1-0.1-1.7C12,25,12.8,19.1,16.6,15c5-5.4,13.4-5.7,18.8-0.7
	c2.8,2.6,4.3,6.2,4.2,10c-0.1,9.3-10,15.5-18.5,11.7c-0.7-0.3-1.5-0.4-2.3-0.1C16.8,36.5,14.9,37.1,12.6,37.8 M16,34.2l0.4,0.2
	c0.8-0.3,1.7-0.5,2.5-0.8c0.9-0.4,1.9-0.3,2.7,0.2c3.7,2,8.2,1.6,11.5-1c3.4-2.4,5.1-6.5,4.3-10.6c-1-6-6.6-10.1-12.7-9.2
	c-0.3,0.1-0.7,0.1-1,0.2c-6.2,1.5-10,8.2-7.7,14.2C16.8,29.8,17.6,31.8,16,34.2"/>
<path class="st0" d="M15.9,34.2c1.7-2.3,0.9-4.4,0-6.8c-2.3-6,1.5-12.7,7.7-14.2c5.9-1.5,12,2.1,13.5,8c0.1,0.3,0.1,0.6,0.2,0.9
	c0.8,4.1-0.9,8.3-4.3,10.6c-3.3,2.6-7.8,3-11.5,1c-0.8-0.5-1.8-0.5-2.7-0.2c-0.8,0.3-1.6,0.5-2.5,0.8L15.9,34.2 M19.7,20.8
	c0.1,0.6,0.3,1.2,0.5,1.8c1.9,3.9,4.9,6.6,9.2,7.4c1.2,0.2,2.4-0.3,3.1-1.2c0.6-0.5,0.7-1.4,0.2-2.1c-0.2-0.2-0.5-0.4-0.8-0.5
	c-0.3-0.1-0.7-0.3-1-0.5c-0.5-0.5-1.3-0.5-1.8,0c-0.1,0.1-0.2,0.3-0.3,0.5c-0.4,0.8-1.1,1-1.8,0.4c-1.2-1-2.3-2-3.5-3
	c-0.4-0.3-0.5-0.8-0.2-1.2c0.1-0.1,0.1-0.2,0.2-0.2c0.6-0.5,0.7-1.4,0.3-2c-0.2-0.4-0.4-0.8-0.5-1.2c-0.6-1.4-1.8-1.6-2.7-0.4
	C20.3,19.4,20,20.1,19.7,20.8"/>
<path class="st1" d="M19.7,20.8c0.3-0.8,0.6-1.5,1.1-2.2c0.9-1.2,2.1-1,2.7,0.4c0.1,0.4,0.3,0.8,0.5,1.2c0.4,0.6,0.3,1.5-0.3,2
	c-0.4,0.2-0.5,0.8-0.3,1.2c0.1,0.1,0.1,0.2,0.2,0.2c1.1,1,2.3,2,3.5,3c0.7,0.6,1.3,0.4,1.8-0.4c0.2-0.7,1-1,1.7-0.8
	c0.2,0.1,0.3,0.2,0.5,0.3c0.3,0.2,0.7,0.3,1,0.5c0.8,0.2,1.2,1,1,1.8c-0.1,0.3-0.2,0.6-0.5,0.8c-0.7,0.9-1.9,1.4-3.1,1.2
	c-4.4-0.9-7.3-3.5-9.2-7.5C20.1,22,19.9,21.3,19.7,20.8"/>
</svg>
