<svg id="Capa_1" data-name="Capa 1" xmlns="http://www.w3.org/2000/svg" viewBox="0 0 50.02 49.66"><defs><style>.cls-1{fill:#333;}.cls-2{fill:#fff;}</style></defs><title>icon_ig</title><path class="cls-1" d="M.92,24.9A23.78,23.78,0,0,1,25,.69c14.45,0,24,11.41,24.11,24.1A24.1,24.1,0,1,1,.92,24.9m36.9-.07c0-2.44,0-4.88,0-7.31a5.4,5.4,0,0,0-5.6-5.59c-4.79,0-9.58,0-14.36,0a5.41,5.41,0,0,0-5.68,5.64q0,7.24,0,14.5a5.46,5.46,0,0,0,5.61,5.73c4.82.05,9.65.06,14.48,0a5.44,5.44,0,0,0,5.55-5.66c0-2.44,0-4.88,0-7.31"/><path class="cls-2" d="M37.82,24.83c0,2.43,0,4.87,0,7.31a5.44,5.44,0,0,1-5.55,5.66c-4.83.06-9.66.05-14.48,0a5.46,5.46,0,0,1-5.61-5.73q0-7.25,0-14.5a5.41,5.41,0,0,1,5.68-5.64c4.78,0,9.57,0,14.36,0a5.4,5.4,0,0,1,5.6,5.59c0,2.43,0,4.87,0,7.31m-23.39-.08q0,3.66,0,7.32a3.09,3.09,0,0,0,3.3,3.42q7.25,0,14.49,0a3.06,3.06,0,0,0,3.31-3.28q0-7.32,0-14.64a3.14,3.14,0,0,0-3.35-3.39q-7.18,0-14.38,0a3.15,3.15,0,0,0-3.37,3.37c0,2.4,0,4.8,0,7.2"/><path class="cls-1" d="M14.43,24.75c0-2.4,0-4.8,0-7.2a3.15,3.15,0,0,1,3.37-3.37q7.19,0,14.38,0a3.14,3.14,0,0,1,3.35,3.39q0,7.32,0,14.64a3.06,3.06,0,0,1-3.31,3.28q-7.24,0-14.49,0a3.09,3.09,0,0,1-3.3-3.42q0-3.66,0-7.32M25,18.13a6.74,6.74,0,1,0,6.68,6.73A6.74,6.74,0,0,0,25,18.13m7.12,1.26a1.58,1.58,0,1,0,0-3.16,1.58,1.58,0,0,0,0,3.16"/><path class="cls-2" d="M25,18.13a6.74,6.74,0,1,1-6.75,6.66A6.74,6.74,0,0,1,25,18.13M24.92,29.3a4.45,4.45,0,1,0-4.39-4.46,4.44,4.44,0,0,0,4.39,4.46"/><path class="cls-2" d="M32.15,19.39a1.58,1.58,0,0,1,0-3.16,1.58,1.58,0,1,1,0,3.16"/><path class="cls-1" d="M24.92,29.3a4.45,4.45,0,1,1,.15-8.9,4.45,4.45,0,1,1-.15,8.9"/></svg>