<svg id="Capa_1" data-name="Capa 1" xmlns="http://www.w3.org/2000/svg" xmlns:xlink="http://www.w3.org/1999/xlink" viewBox="0 0 130.5 130.5"><defs><style>.cls-1{fill:none;}.cls-2{clip-path:url(#clip-path);}.cls-3{fill:url(#Degradado_sin_nombre_4);}.cls-4{fill:#fff;}</style><clipPath id="clip-path"><path class="cls-1" d="M2,65.35A63.23,63.23,0,1,0,65.25,2.12,63.23,63.23,0,0,0,2,65.35"/></clipPath><linearGradient id="Degradado_sin_nombre_4" x1="-831.16" y1="1498.87" x2="-830.16" y2="1498.87" gradientTransform="matrix(0, 126.47, 126.47, 0, -189492.87, 105116.24)" gradientUnits="userSpaceOnUse"><stop offset="0" stop-color="#ea1f27"/><stop offset="0.33" stop-color="#ea1f27"/><stop offset="1" stop-color="#c81f27"/></linearGradient></defs><title>logo_header</title><g class="cls-2"><rect class="cls-3" x="2.02" y="2.12" width="126.47" height="126.47"/></g><path class="cls-4" d="M49.67,65.13a.43.43,0,0,0,.37.24H62.69a.52.52,0,0,0,.45-.58V46.48a.59.59,0,0,0-.45-.54.53.53,0,0,0-.62.16L49.7,64.41a.71.71,0,0,0,0,.72M52.91,63,61.09,51.4h0V63.13a1.85,1.85,0,0,1-.39,0H52.9a.24.24,0,0,1,0-.2"/><path class="cls-4" d="M36.17,62.77a9,9,0,0,0,3.09,2.06,10.34,10.34,0,0,0,4,.74,9.29,9.29,0,0,0,3.87-.81,8,8,0,0,0,2.77-2.14.91.91,0,0,0,.19-.63.82.82,0,0,0-.33-.57l-.43-.33a.82.82,0,0,0-1.15.15,5.6,5.6,0,0,1-.77.77,6.62,6.62,0,0,1-1.32.86,5.79,5.79,0,0,1-1.43.5,6.3,6.3,0,0,1-1.4.17,8,8,0,0,1-3.16-.61,7,7,0,0,1-2.38-1.66,7.35,7.35,0,0,1-1.52-2.51,9.48,9.48,0,0,1,0-6.25A7.3,7.3,0,0,1,37.68,50a7,7,0,0,1,2.38-1.66,7.78,7.78,0,0,1,3.16-.61,6.37,6.37,0,0,1,2.65.58,4.67,4.67,0,0,1,1.75,1.34.84.84,0,0,0,.58.31.82.82,0,0,0,.6-.19l.46-.38a.87.87,0,0,0,.3-.58.83.83,0,0,0-.22-.62,7.13,7.13,0,0,0-2.53-1.81,9.52,9.52,0,0,0-3.59-.68,10.16,10.16,0,0,0-4,.75,9.13,9.13,0,0,0-3.09,2.07,9.66,9.66,0,0,0-2,3.14,11.33,11.33,0,0,0,0,7.95,9.6,9.6,0,0,0,2,3.15"/><path class="cls-4" d="M65.33,65.25h.53a.85.85,0,0,0,.84-.85V56.72a.38.38,0,0,1,.38-.37h2.3a.37.37,0,0,1,.32.18l4.92,8.3a.84.84,0,0,0,.72.42h.56a.82.82,0,0,0,.73-.43.83.83,0,0,0,0-.85l-4.44-7.33a.39.39,0,0,1,0-.35.36.36,0,0,1,.25-.21c.26-.06.53-.13.8-.22A4.93,4.93,0,0,0,74.83,55a4.41,4.41,0,0,0,1.23-1.49,4.91,4.91,0,0,0,.49-2.33A5.12,5.12,0,0,0,76.13,49a4.48,4.48,0,0,0-1.06-1.47,4.34,4.34,0,0,0-1.45-.89,8.41,8.41,0,0,0-1.55-.44,10.69,10.69,0,0,0-1.41-.16l-1,0H65.33a.85.85,0,0,0-.84.84V64.4a.85.85,0,0,0,.84.85M66.7,53.92V48.46a.38.38,0,0,1,.38-.38h3.1a5.89,5.89,0,0,1,2.15.33,3.49,3.49,0,0,1,1.25.79,2.55,2.55,0,0,1,.6,1,3.14,3.14,0,0,1,0,2,2.55,2.55,0,0,1-.6,1,3.63,3.63,0,0,1-1.25.79,6.13,6.13,0,0,1-2.15.32h-3.1a.38.38,0,0,1-.38-.37"/><path class="cls-4" d="M80.48,65.25H81a.84.84,0,0,0,.84-.85V56.72a.38.38,0,0,1,.38-.37h3.44a8,8,0,0,0,2.2-.3,5.7,5.7,0,0,0,1.88-.93,4.66,4.66,0,0,0,1.31-1.6,5.16,5.16,0,0,0,.49-2.3,5,5,0,0,0-.61-2.55,4.61,4.61,0,0,0-1.53-1.6,6.35,6.35,0,0,0-2-.81,10.53,10.53,0,0,0-2.1-.23h-4.8a.85.85,0,0,0-.84.84V64.4a.85.85,0,0,0,.84.85m1.37-11.33V48.46a.38.38,0,0,1,.38-.38h3.26a5.9,5.9,0,0,1,1.43.18,3.84,3.84,0,0,1,1.23.56,3.09,3.09,0,0,1,.86,1,2.88,2.88,0,0,1,.33,1.43A3,3,0,0,1,89,52.67a2.7,2.7,0,0,1-.83.94,3.56,3.56,0,0,1-1.19.52,6,6,0,0,1-1.41.16H82.23a.38.38,0,0,1-.38-.37"/><path class="cls-4" d="M95.69,65.25h.52a.85.85,0,0,0,.85-.85V46.87a.85.85,0,0,0-.85-.84h-.52a.85.85,0,0,0-.85.84V64.4a.85.85,0,0,0,.85.85"/><path class="cls-4" d="M43.44,80.15a5,5,0,0,1-1,1.6,4,4,0,0,1-1.42,1,4.48,4.48,0,0,1-1.7.33,3.45,3.45,0,0,1-1.85-.44,5,5,0,0,1-1.23-1v4.22h-2.8V73h2.8v1.41a4.53,4.53,0,0,1,1.25-1.14,3.4,3.4,0,0,1,1.83-.45,4.41,4.41,0,0,1,1.68.33,4,4,0,0,1,1.43,1,4.81,4.81,0,0,1,1,1.6,5.89,5.89,0,0,1,.38,2.18v0a5.89,5.89,0,0,1-.38,2.18M41,77.93a3.1,3.1,0,0,0-.2-1.12,2.69,2.69,0,0,0-.52-.87,2.35,2.35,0,0,0-.77-.56,2.37,2.37,0,0,0-1.86,0,2.17,2.17,0,0,0-.75.56,2.69,2.69,0,0,0-.52.87,3.1,3.1,0,0,0-.19,1.12v0a3.1,3.1,0,0,0,.19,1.12,2.69,2.69,0,0,0,.52.87,2.17,2.17,0,0,0,.75.56,2.37,2.37,0,0,0,1.86,0A2.35,2.35,0,0,0,40.3,80a2.75,2.75,0,0,0,.52-.86A3.08,3.08,0,0,0,41,78Z"/><path class="cls-4" d="M52.33,82.89V81.48a6,6,0,0,1-.53.6,3.9,3.9,0,0,1-.63.51,2.9,2.9,0,0,1-.78.35,3.12,3.12,0,0,1-1,.13,3.15,3.15,0,0,1-2.48-1,3.92,3.92,0,0,1-.88-2.69V73h2.8v5.5a2.2,2.2,0,0,0,.45,1.5,1.58,1.58,0,0,0,1.25.5,1.68,1.68,0,0,0,1.28-.5,2.16,2.16,0,0,0,.47-1.5V73h2.8v9.88Z"/><path class="cls-4" d="M64.19,82.89v-5.5a2.21,2.21,0,0,0-.44-1.49,1.57,1.57,0,0,0-1.25-.51,1.65,1.65,0,0,0-1.28.51,2.07,2.07,0,0,0-.47,1.49v5.5H58V73h2.8v1.42a6,6,0,0,1,.52-.61,3.59,3.59,0,0,1,.64-.51,3.18,3.18,0,0,1,.77-.35,3.62,3.62,0,0,1,3.44.85A3.89,3.89,0,0,1,67,76.5v6.39Z"/><path class="cls-4" d="M74.2,82.9a4.5,4.5,0,0,1-1.23.15,4.27,4.27,0,0,1-1.17-.14,2.06,2.06,0,0,1-.9-.48,2.4,2.4,0,0,1-.59-.92,4.09,4.09,0,0,1-.21-1.42V75.41H68.92V73H70.1V70.49h2.8V73h2.32v2.4H72.9v4.22c0,.64.3,1,.9,1a2.78,2.78,0,0,0,1.38-.35v2.25a4.59,4.59,0,0,1-1,.42"/><path class="cls-4" d="M87.22,80A5.1,5.1,0,0,1,86.1,81.6a5.43,5.43,0,0,1-1.69,1.1,5.59,5.59,0,0,1-2.14.41,5.48,5.48,0,0,1-2.12-.4A5,5,0,0,1,77,78v0a5,5,0,0,1,.4-2,5.27,5.27,0,0,1,1.12-1.63,5.32,5.32,0,0,1,1.7-1.11,5.51,5.51,0,0,1,2.14-.4,5.43,5.43,0,0,1,2.11.4,5,5,0,0,1,1.69,1.08,5.08,5.08,0,0,1,1.11,1.62,5,5,0,0,1,.41,2v0a5,5,0,0,1-.41,2m-2.35-2a3,3,0,0,0-.19-1,2.58,2.58,0,0,0-.53-.87,2.76,2.76,0,0,0-.83-.6,2.53,2.53,0,0,0-2.93.57,2.76,2.76,0,0,0-.51.86,3.24,3.24,0,0,0-.17,1v0a3,3,0,0,0,.18,1,2.66,2.66,0,0,0,.54.86,2.32,2.32,0,0,0,.82.6,2.39,2.39,0,0,0,1.06.22,2.59,2.59,0,0,0,1.07-.21,2.23,2.23,0,0,0,.8-.58,2.44,2.44,0,0,0,.51-.85,3,3,0,0,0,.18-1Z"/><path class="cls-4" d="M96.77,81.31a2.68,2.68,0,0,1-.8,1,3.67,3.67,0,0,1-1.21.58,5.41,5.41,0,0,1-1.48.19A6.94,6.94,0,0,1,89,81.58l1.2-1.84a6.59,6.59,0,0,0,1.61.88,4.34,4.34,0,0,0,1.5.3,1.53,1.53,0,0,0,.9-.21.61.61,0,0,0,.28-.53v0a.52.52,0,0,0-.16-.38,1.45,1.45,0,0,0-.46-.29,5.37,5.37,0,0,0-.65-.23L92.49,79a10.69,10.69,0,0,1-1-.36,3.58,3.58,0,0,1-1-.55,2.55,2.55,0,0,1-.69-.84A2.52,2.52,0,0,1,89.54,76v0a3,3,0,0,1,.28-1.34,3.15,3.15,0,0,1,1.92-1.59,4.62,4.62,0,0,1,1.41-.2,6.44,6.44,0,0,1,1.91.3,6.86,6.86,0,0,1,1.77.84l-1.06,1.93a9.66,9.66,0,0,0-1.44-.67A3.68,3.68,0,0,0,93.09,75a1.26,1.26,0,0,0-.77.2.58.58,0,0,0-.26.48v0a.48.48,0,0,0,.17.36,2,2,0,0,0,.44.29,4.25,4.25,0,0,0,.64.27l.76.26a10.63,10.63,0,0,1,1.05.4,4.1,4.1,0,0,1,1,.56,2.89,2.89,0,0,1,.7.81,2.31,2.31,0,0,1,.27,1.16v0a3.27,3.27,0,0,1-.28,1.42"/><path class="cls-4" d="M62.18,120.43a1.23,1.23,0,0,1,.29-1.39,11,11,0,0,0,2.08-2.64,2.74,2.74,0,0,0,.41-1.91c0-.08-.12-.32-.62-.54l-3.6-.66-.09,0a3.05,3.05,0,0,0-1.36.52c-.79.44-1.7,1.07-2.59,1.68l-.15.11L54,117.43l-1.17.85a1.14,1.14,0,0,1-.84.22l-.43-.06-2.32-.37h-.06l-1.54-.32c-.92-.18-1.82-.42-2.54-.61l-.43-.11c-.82-.21-1.37-.39-1.39-.4a1.22,1.22,0,0,1-.07-2.28l.31-.13a6.72,6.72,0,0,0,.7-.33h0a10.21,10.21,0,0,0,1.91-1.27h0A2.59,2.59,0,0,0,47.14,111a1,1,0,0,0-.38-.73l-3.12-1.92-.06,0s-.33-.16-1.46,0c-.89.12-2,.37-3,.62l-.19,0-4.49,1.15a1.27,1.27,0,0,1-.86-.1s-.51-.27-1.22-.68l0,0c-.21-.14-.46-.29-.73-.45-.56-.34-1.2-.72-1.82-1.14l-.55-.37c-.72-.49-1.41-1-1.95-1.39l-1.08-.81a1.22,1.22,0,0,1-.43-1.35,1.24,1.24,0,0,1,1.15-.84,11.38,11.38,0,0,0,3.33-.55,3.38,3.38,0,0,0,1.49-1c.09-.14.26-.38,0-1l-2.22-2.9-.06-.09s-.25-.26-1.32-.5h0a27,27,0,0,0-3.22-.53h0c-1.09-.15-2.16-.28-3.15-.39h0l-1.42-.17a1.17,1.17,0,0,1-.79-.42c0-.06-1.43-1.69-2.71-3.47h0c-.49-.69-1-1.38-1.36-2l-.33-.5,0,0-.7-1.16a1.22,1.22,0,0,1,.11-1.42,1.24,1.24,0,0,1,1.38-.34s.43.17,1,.34h0a9.12,9.12,0,0,0,2.23.33A2.63,2.63,0,0,0,21,86.67a1,1,0,0,0,.2-.78l-1-3.53v0s-.09-.34-1.06-1c-.74-.49-1.69-1.06-2.83-1.68l-4.1-2.18a1.17,1.17,0,0,1-.57-.65s-.21-.55-.44-1.35c0-.15-.09-.3-.14-.46-.22-.7-.48-1.57-.69-2.46L10,71s0,0,0,0l-.27-1.37-.26-1.34a1.22,1.22,0,0,1,2-1.14,11.4,11.4,0,0,0,2.84,1.84h0a3.18,3.18,0,0,0,1.72.3c.14,0,.47-.11.68-.73L17,64.85s0-.07,0-.11,0-.36-.64-1.26v0a26.61,26.61,0,0,0-2-2.56l0,0c-.76-.91-1.5-1.76-2.07-2.41l-.95-1.08a1.22,1.22,0,0,1-.3-.87l.08-1.33c0-.84.14-1.91.27-3,.07-.77.19-1.51.3-2.16l.14-.84h0c.06-.39.13-.76.19-1.06l.08-.35a1.22,1.22,0,0,1,2.29-.28,7.76,7.76,0,0,0,.53.94,10.39,10.39,0,0,0,1.44,1.77h0a2.64,2.64,0,0,0,1.71.9c.08,0,.34,0,.68-.44l1.63-3.29,0-.07a3.47,3.47,0,0,0-.13-1.45c-.18-.79-.5-1.74-.81-2.67l-.15-.46-1.56-4.37a1.22,1.22,0,0,1,0-.88l.15-.34A.61.61,0,0,1,18,37c.09-.21.21-.5.38-.84l.37-.77c.28-.59.6-1.26,1-1.92.48-.9,1-1.91,1.51-2.65l.7-1.15a1.21,1.21,0,0,1,1.31-.55,1.22,1.22,0,0,1,.94,1.07A11.52,11.52,0,0,0,25,33.45a3.22,3.22,0,0,0,1.08,1.39c.14.08.41.23,1-.08l2.68-2.48.09-.07a2.9,2.9,0,0,0,.38-1.36v0a29.3,29.3,0,0,0,.24-3.2v-.05h0c.05-1.11.07-2.23.08-3.18v0l0-1.42A1.24,1.24,0,0,1,31,22.1l.95-1c.41-.4.91-.85,1.44-1.33l.78-.71,0,0,.64-.52c.62-.52,1.21-1,1.71-1.39h0l1.1-.81a1.2,1.2,0,0,1,1.41,0,1.23,1.23,0,0,1,.48,1.34s-.13.45-.24,1.08h0A8.92,8.92,0,0,0,39.2,21h0a2.69,2.69,0,0,0,.66,1.83c.07.06.27.21.8.13l3.42-1.33.06,0s.34-.17.9-1.18c.45-.79.9-1.82,1.34-2.82l0-.12,1.24-2.95.54-1.33a1.21,1.21,0,0,1,.61-.63,3.42,3.42,0,0,1,.39-.18l2.17-.9.06,0,1.48-.54c.9-.34,1.82-.62,2.55-.84l.36-.11,1-.28,0,0,.37-.09a1.23,1.23,0,0,1,1.32.53,1.22,1.22,0,0,1-.08,1.42,7.78,7.78,0,0,0-.58.88h0a10.39,10.39,0,0,0-1,2.08h0a2.61,2.61,0,0,0,0,1.93,1,1,0,0,0,.7.42h3.77c.06,0,.37-.08,1.22-.77h0a25.39,25.39,0,0,0,2.13-2l.24-.24c.78-.79,1.52-1.57,2.21-2.3h0l1-1a1.22,1.22,0,0,1,.8-.37c.09,0,2.22-.13,4.41-.07.75,0,1.5.06,2.15.1l.86.06h0c.83.07,1.39.14,1.41.14a1.22,1.22,0,0,1,.48,2.25,8.56,8.56,0,0,0-.9.63h0a9.62,9.62,0,0,0-1.62,1.6A2.65,2.65,0,0,0,75,16.62c0,.08.06.33.5.62l3.43,1.33.06,0a.77.77,0,0,0,.34,0h0a5,5,0,0,0,1.06-.24c.4-.14.87-.32,1.43-.56h0c.45-.19,1-.41,1.57-.68l4.21-2a1.21,1.21,0,0,1,.88-.05l.34.1c.27.08.6.21,1,.35h0l.67.25c.66.24,1.41.51,2.15.85l1.46.62,0,0,1.25.6h0l1.22.6a1.22,1.22,0,0,1-.3,2.29,11.65,11.65,0,0,0-3.18,1.16h0a3.14,3.14,0,0,0-1.27,1.19c-.07.15-.2.44.17,1l2.71,2.46.08.07s.32.2,1.41.26h0a23.64,23.64,0,0,0,2.76,0l.5,0,4.62-.29a1.19,1.19,0,0,1,.85.27l1,.86,0,0c.58.51,1.37,1.23,2.22,2l0,0,.76.75c.51.51,1,1,1.37,1.42l.91,1a1.21,1.21,0,0,1,.16,1.41,1.22,1.22,0,0,1-1.29.61,7.79,7.79,0,0,0-1.09-.14,9.12,9.12,0,0,0-2.26.07h0a2.62,2.62,0,0,0-1.76.82.92.92,0,0,0-.06.81l1.65,3.28a.08.08,0,0,1,0,.05s.16.32,1.22.78a31.24,31.24,0,0,0,3.09,1.12h0l3.06,1,1.37.42a1.2,1.2,0,0,1,.71.58l.63,1.17c.42.75.9,1.74,1.36,2.72.34.68.62,1.38.87,2l.33.79h0c.15.36.29.71.39,1l.12.34a1.22,1.22,0,0,1-.39,1.36,1.19,1.19,0,0,1-1.41.07s-.38-.24-1-.51a9.62,9.62,0,0,0-2.16-.75h0a2.67,2.67,0,0,0-1.92.12,1,1,0,0,0-.35.74l.34,3.65v.07s.07.36.89,1.19c.64.65,1.5,1.36,2.34,2.06l.11.09,3.62,2.89a1.19,1.19,0,0,1,.44.78l.19,1.33a.13.13,0,0,1,0,.06l.28,3v.06c0,.34,0,.68,0,1,0,.73.07,1.42.07,2V72.3a1.22,1.22,0,0,1-2.19.72s-.28-.37-.71-.84h0a9.14,9.14,0,0,0-1.72-1.45h0a2.73,2.73,0,0,0-1.86-.58,1,1,0,0,0-.58.56l-1,3.54s0,0,0,0-.1.35.37,1.43c.37.8.88,1.78,1.53,2.91l2.34,4a1.15,1.15,0,0,1,.14.87l-.07.36,0,0-.3,1.16c-.2.78-.45,1.74-.77,2.71-.06.17-.11.34-.16.5-.11.35-.22.7-.34,1v0l-.48,1.31-.35.92c-.1.26-.17.42-.18.45a1.22,1.22,0,0,1-2.28-.21,7.4,7.4,0,0,0-.36-1h0a9.78,9.78,0,0,0-1.09-2,2.69,2.69,0,0,0-1.5-1.2,1,1,0,0,0-.77.31l-2.2,2.93,0,0a3,3,0,0,0-.14,1.47c0,.9.19,2,.34,3.08l0,.16.72,4.58a1.21,1.21,0,0,1-.19.87l-.76,1.11a.21.21,0,0,1,0,.06l-.5.67c-.39.53-.83,1.12-1.3,1.71-1.37,1.71-2.85,3.29-2.92,3.36a1.21,1.21,0,0,1-2.09-1s0-.46,0-1.1a9.31,9.31,0,0,0-.28-2.25,2.68,2.68,0,0,0-1-1.68,1,1,0,0,0-.82,0l-3.11,2-.07,0s-.29.19-.65,1.28h0a29.3,29.3,0,0,0-.83,3.17v0c-.24,1-.48,2.17-.68,3.11h0l-.29,1.4a1.23,1.23,0,0,1-.51.76l-1.1.74c-.53.38-1.19.77-1.89,1.19l-.69.42h0c-.65.39-1.31.74-1.89,1l-.76.41,0,0c-.74.38-1.26.61-1.28.62a1.23,1.23,0,0,1-1.38-.27,1.21,1.21,0,0,1-.2-1.39s.21-.41.43-1h0a9.64,9.64,0,0,0,.54-2.21,2.68,2.68,0,0,0-.31-1.91.91.91,0,0,0-.76-.27l-3.61.67H78.4a.93.93,0,0,0-.28.18l0,0a4.19,4.19,0,0,0-.77.76c-.28.33-.58.73-.93,1.23l0,0c-.31.43-.64.91-1,1.4l-2.55,3.88a1.17,1.17,0,0,1-.72.51l-.39.1c-.23.06-.58.15-1,.22l-.84.17c-.64.13-1.37.28-2.12.38l-.87.13c-.78.11-1.52.22-2.16.26l-1.34.13h-.11a1.22,1.22,0,0,1-1.11-.72M96.44,29a4.52,4.52,0,0,1-3-1l-2.8-2.53a1.54,1.54,0,0,1-.17-.19,3.4,3.4,0,0,1-.49-3.55,5.49,5.49,0,0,1,2.27-2.31,10.46,10.46,0,0,1,.94-.49L92,18.45h0c-.67-.3-1.38-.56-2-.79l-.7-.26-.76-.28-3.83,1.78h0c-.63.29-1.17.53-1.66.73a17.65,17.65,0,0,1-1.65.63,7.64,7.64,0,0,1-1.56.36,3.06,3.06,0,0,1-1.63-.18L74.6,19.06,74.41,19a3.44,3.44,0,0,1-1.73-2.34,4.77,4.77,0,0,1,1.23-3.76,10.1,10.1,0,0,1,.7-.81L73.35,12h0c-1.5,0-3,0-3.76,0l-.65.68c-.71.75-1.47,1.55-2.27,2.36l-.24.25a29.86,29.86,0,0,1-2.37,2.22,4.55,4.55,0,0,1-2.92,1.31H57.35a.93.93,0,0,1-.23,0,3.46,3.46,0,0,1-2.45-1.59,4.79,4.79,0,0,1-.2-3.93c.11-.35.24-.68.37-1-.38.12-.78.26-1.17.41h0l-1.48.54-2,.85-.36.88h0l-1.26,3v0l0,.13c-1.14,2.59-2.11,4.83-3.71,5.38l-3.54,1.38L41,25a3.46,3.46,0,0,1-2.86-.57,4.82,4.82,0,0,1-1.62-3.6,9.51,9.51,0,0,1,0-1.06l-.34.28-.62.52-.78.7c-.51.46-1,.9-1.36,1.26l-.61.61,0,.94c0,1,0,2.12-.09,3.27v0a31.77,31.77,0,0,1-.26,3.53,4.51,4.51,0,0,1-1.27,2.94l-2.79,2.56a1.49,1.49,0,0,1-.2.15,3.37,3.37,0,0,1-3.58.16,5.57,5.57,0,0,1-2.09-2.47c-.15-.32-.28-.65-.4-1-.21.37-.41.75-.61,1.11v0c-.33.59-.64,1.22-.9,1.78l-.41.84c-.13.26-.23.5-.32.7v0l1.41,4v0c.06.16.11.32.16.48.33,1,.67,2,.88,2.93v0a4.68,4.68,0,0,1-.13,3.17l-1.68,3.39-.12.19a3.45,3.45,0,0,1-2.5,1.5h-.28a5,5,0,0,1-3.34-1.58,9,9,0,0,1-.74-.78c-.06.4-.12.81-.15,1.22v0c-.12,1.09-.23,2.12-.26,2.89v0l-.05.85.62.7c.58.67,1.34,1.54,2.12,2.47A30.35,30.35,0,0,1,18,62.07a4.42,4.42,0,0,1,1,3l-.32,3.77a1.69,1.69,0,0,1-.05.24,3.45,3.45,0,0,1-2.54,2.55,5.53,5.53,0,0,1-3.21-.43,10.52,10.52,0,0,1-1-.45L12.25,72v0c.18.82.43,1.62.64,2.32q.07.25.15.48h0c.09.31.18.57.24.78l3.72,2h0c1.23.66,2.26,1.27,3.06,1.81h0a4.59,4.59,0,0,1,2,2.43l1.05,3.66a1.55,1.55,0,0,1,0,.21,3.43,3.43,0,0,1-.82,2.79,4.8,4.8,0,0,1-3.74,1.29,9.75,9.75,0,0,1-1.06-.07l.71,1c.88,1.22,1.83,2.4,2.3,3l.94.11c1,.12,2.11.24,3.24.4a28.57,28.57,0,0,1,3.53.59,4.41,4.41,0,0,1,2.81,1.53l2.3,3a1,1,0,0,1,.13.22,3.37,3.37,0,0,1-.16,3.57A5.47,5.47,0,0,1,30.76,105c-.33.12-.67.22-1,.31l.5.34.55.37c.58.39,1.19.76,1.73,1.08l.75.46.72.4,4.07-1h0l.2,0c2.73-.64,5.08-1.19,6.47-.26l3.22,2,.19.13a3.47,3.47,0,0,1,1.25,2.65,4.8,4.8,0,0,1-1.9,3.45,10.11,10.11,0,0,1-.84.66l1.21.26h0l1.54.32,2.17.35.77-.57h0L55.05,114h0l.16-.11c2.3-1.6,4.3-3,5.94-2.59l3.73.67.23.07a3.51,3.51,0,0,1,2.12,2,4.78,4.78,0,0,1-.53,3.91,10.11,10.11,0,0,1-.53.9l.37-.05.9-.13c.67-.09,1.37-.23,2-.36l.9-.18c.31-.05.57-.12.78-.17l2.31-3.52h0c.35-.52.7-1,1-1.48s.74-1,1.06-1.41a8.07,8.07,0,0,1,1.15-1.13,3,3,0,0,1,1.47-.7L81.9,109a.75.75,0,0,1,.21,0,3.42,3.42,0,0,1,2.7,1.07,4.83,4.83,0,0,1,.93,3.85,10.4,10.4,0,0,1-.17,1c.36-.19.73-.4,1.08-.61l.71-.43c.67-.4,1.3-.78,1.76-1.1l0,0,.71-.48.2-.92c.19-1,.44-2.12.69-3.18a30.27,30.27,0,0,1,.9-3.46,4.39,4.39,0,0,1,1.79-2.66l3.21-2,.21-.1a3.5,3.5,0,0,1,2.92,0A4.82,4.82,0,0,1,102,103.3a9.49,9.49,0,0,1,.22,1c.26-.31.53-.64.79-1,.45-.56.89-1.15,1.27-1.66l.5-.68.47-.69-.66-4.15v0l0-.17c-.4-2.79-.74-5.19.33-6.49l2.28-3a1.37,1.37,0,0,1,.16-.18,3.51,3.51,0,0,1,2.76-1,4.82,4.82,0,0,1,3.24,2.22,8.06,8.06,0,0,1,.58.9c.08-.22.15-.45.22-.69s.11-.36.17-.53v0c.3-.9.54-1.83.73-2.57l.27-1L113.22,80h0c-.69-1.21-1.25-2.27-1.65-3.15v0a4.56,4.56,0,0,1-.48-3.14l1-3.67a1.8,1.8,0,0,1,.08-.21,3.48,3.48,0,0,1,2.17-1.94,4.84,4.84,0,0,1,3.85.88,8.2,8.2,0,0,1,.86.61,1.93,1.93,0,0,0,0-.24c0-.33,0-.67,0-1l-.27-2.91-.12-.83-3.28-2.62,0,0-.11-.09c-2.18-1.8-4.06-3.36-4.15-5l-.35-3.78a1.62,1.62,0,0,1,0-.22A3.47,3.47,0,0,1,112.06,50a4.8,4.8,0,0,1,3.91-.57c.35.08.7.17,1,.27-.15-.37-.32-.75-.51-1.12v0c-.44-.94-.91-1.91-1.29-2.59l0,0-.4-.75-.91-.28h0l-3.08-1c-1.2-.37-2.36-.8-3.36-1.22a4.55,4.55,0,0,1-2.49-2l-1.71-3.4a1.8,1.8,0,0,1-.08-.21,3.46,3.46,0,0,1,.31-2.9,4.81,4.81,0,0,1,3.43-1.94c.33-.06.68-.1,1-.13l-.13-.13-.76-.76c-.82-.77-1.58-1.46-2.15-2l-.65-.54L100,29h0M29.43,97.45h0m77-6.6h0M17,64.74Zm96.07-8.25h0m-92.69-9.2h0M29.9,32.21h0m65-5.55h0M44.14,21.59h0M79,18.6h0m0,0h0"/></svg>