<svg id="Capa_1" data-name="Capa 1" xmlns="http://www.w3.org/2000/svg" viewBox="0 0 161.33 87.64"><defs><style>.cls-1{fill:#fff;}</style></defs><title>logo_footer</title><polygon class="cls-1" points="156.35 77.43 156.35 80.37 6.2 80.37 6.2 77.43 4.89 77.43 4.89 84.53 6.2 84.53 6.2 81.59 156.35 81.59 156.35 84.53 157.66 84.53 157.66 77.43 156.35 77.43"/><path class="cls-1" d="M42.22,49.19a1,1,0,0,0,.89.58h30a1.24,1.24,0,0,0,1.08-1.37V5a1.41,1.41,0,0,0-1.09-1.3,1.27,1.27,0,0,0-1.47.39L42.29,47.5a1.7,1.7,0,0,0-.07,1.69m7.68-5.14L69.3,16.66h0V43.36c0,.51,0,1,0,1.11a4,4,0,0,1-.92.05H49.88a.55.55,0,0,1,0-.47"/><path class="cls-1" d="M10.24,43.61a21.37,21.37,0,0,0,7.32,4.88,24.58,24.58,0,0,0,9.37,1.74,22.28,22.28,0,0,0,9.18-1.9,18.62,18.62,0,0,0,6.56-5.08,2,2,0,0,0,.45-1.5,1.94,1.94,0,0,0-.77-1.35l-1-.78a2,2,0,0,0-2.74.35,12.13,12.13,0,0,1-1.81,1.84,16.52,16.52,0,0,1-3.14,2A15.56,15.56,0,0,1,30.27,45a15.18,15.18,0,0,1-3.34.39A18.81,18.81,0,0,1,19.46,44a16.64,16.64,0,0,1-5.65-4,17.36,17.36,0,0,1-3.59-5.93A21.26,21.26,0,0,1,9,26.71a21.35,21.35,0,0,1,1.26-7.41,17.46,17.46,0,0,1,3.59-5.93,16.75,16.75,0,0,1,5.65-3.94A18.64,18.64,0,0,1,26.93,8a15.42,15.42,0,0,1,6.3,1.37,11.46,11.46,0,0,1,4.15,3.18,2,2,0,0,0,1.36.73,1.93,1.93,0,0,0,1.43-.44l1.08-.9A2,2,0,0,0,42,10.54a1.93,1.93,0,0,0-.5-1.45,16.64,16.64,0,0,0-6-4.29,22.51,22.51,0,0,0-8.52-1.62A24.3,24.3,0,0,0,17.55,5a21.54,21.54,0,0,0-7.31,4.91A22.47,22.47,0,0,0,5.49,17.3a25.48,25.48,0,0,0-1.71,9.41,25.63,25.63,0,0,0,1.71,9.43,22.35,22.35,0,0,0,4.75,7.47"/><path class="cls-1" d="M79.34,49.47h1.25a2,2,0,0,0,2-2V29.28a.9.9,0,0,1,.9-.89h5.45a.91.91,0,0,1,.77.44l11.65,19.66a2,2,0,0,0,1.71,1h1.32a2,2,0,0,0,1.74-1,2,2,0,0,0,0-2L95.57,29.08a.91.91,0,0,1-.06-.82.88.88,0,0,1,.6-.51c.61-.14,1.25-.31,1.9-.52a12.19,12.19,0,0,0,3.85-2,10.87,10.87,0,0,0,2.91-3.54,11.77,11.77,0,0,0,1.16-5.53,12,12,0,0,0-1-5.12,10.6,10.6,0,0,0-6-5.62,20.86,20.86,0,0,0-3.67-1A25,25,0,0,0,92,4c-1,0-1.81-.07-2.41-.07H79.34a2,2,0,0,0-2,2V47.48a2,2,0,0,0,2,2m3.24-26.84V9.7a.9.9,0,0,1,.9-.89h7.34a14.18,14.18,0,0,1,5.1.77,8.39,8.39,0,0,1,3,1.88,5.73,5.73,0,0,1,1.41,2.35,8.33,8.33,0,0,1,.39,2.35,8.34,8.34,0,0,1-.39,2.36,5.78,5.78,0,0,1-1.41,2.35,8.25,8.25,0,0,1-3,1.88,14.15,14.15,0,0,1-5.1.77H83.48a.9.9,0,0,1-.9-.89"/><path class="cls-1" d="M115.25,49.47h1.25a2,2,0,0,0,2-2V29.28a.89.89,0,0,1,.9-.89h8.15a19.11,19.11,0,0,0,5.21-.71,13.43,13.43,0,0,0,4.45-2.2,10.8,10.8,0,0,0,3.1-3.8,12.06,12.06,0,0,0,1.16-5.45,11.69,11.69,0,0,0-1.43-6,11,11,0,0,0-3.63-3.8,14.76,14.76,0,0,0-4.82-1.92,24.56,24.56,0,0,0-5-.55H115.25a2,2,0,0,0-2,2V47.48a2,2,0,0,0,2,2m3.24-26.84V9.7a.89.89,0,0,1,.9-.89h7.71a14,14,0,0,1,3.38.42,8.38,8.38,0,0,1,2.92,1.32,7.09,7.09,0,0,1,2,2.31,6.75,6.75,0,0,1,.78,3.37,7.17,7.17,0,0,1-.75,3.44,6.43,6.43,0,0,1-2,2.23,8.42,8.42,0,0,1-2.83,1.23,14.22,14.22,0,0,1-3.32.39h-8a.89.89,0,0,1-.9-.89"/><path class="cls-1" d="M151.27,49.47h1.25a2,2,0,0,0,2-2V5.94a2,2,0,0,0-2-2h-1.25a2,2,0,0,0-2,2V47.48a2,2,0,0,0,2,2"/><polygon class="cls-1" points="18.65 58.2 18.65 54.72 5.28 54.72 5.28 72.48 18.77 72.48 18.77 69 9.13 69 9.13 65.28 17.5 65.28 17.5 61.8 9.13 61.8 9.13 58.2 18.65 58.2"/><polygon class="cls-1" points="29.93 72.48 33.94 66.39 37.92 72.48 42.49 72.48 36.3 63.4 42.24 54.72 37.8 54.72 34.04 60.48 30.31 54.72 25.75 54.72 31.68 63.45 25.49 72.48 29.93 72.48"/><path class="cls-1" d="M60.08,55.17a8.36,8.36,0,0,0-2.85-.45H50V72.48h3.91V67.15h3a9.72,9.72,0,0,0,2.8-.39,6.82,6.82,0,0,0,2.29-1.18,5.54,5.54,0,0,0,1.53-1.95A6.29,6.29,0,0,0,64,60.91v0a6.55,6.55,0,0,0-.47-2.5,5.49,5.49,0,0,0-1.34-1.94,6,6,0,0,0-2.14-1.25m0,5.82a2.52,2.52,0,0,1-.81,1.91,3.15,3.15,0,0,1-2.28.78h-3.1V58.25h3a3.64,3.64,0,0,1,2.32.68,2.43,2.43,0,0,1,.85,2Z"/><polygon class="cls-1" points="84.86 58.2 84.86 54.72 71.49 54.72 71.49 72.48 84.98 72.48 84.98 69 75.34 69 75.34 65.28 83.71 65.28 83.71 61.8 75.34 61.8 75.34 58.2 84.86 58.2"/><path class="cls-1" d="M106.81,64.15a5.6,5.6,0,0,0,1-3.52v-.05a5.48,5.48,0,0,0-1.52-4.06,7,7,0,0,0-5.17-1.8H93.05V72.48H97V66.8H100l3.8,5.68h4.57l-4.34-6.34a6.11,6.11,0,0,0,2.75-2m-2.9-3.31a2.29,2.29,0,0,1-.78,1.82,3.21,3.21,0,0,1-2.22.69H97v-5.1h3.88a3.58,3.58,0,0,1,2.25.63,2.26,2.26,0,0,1,.82,1.91Z"/><polygon class="cls-1" points="124 72.48 124 58.33 129.4 58.33 129.4 54.72 114.69 54.72 114.69 58.33 120.09 58.33 120.09 72.48 124 72.48"/><path class="cls-1" d="M136.89,60a8.81,8.81,0,0,0-.71,3.56v0a9.23,9.23,0,0,0,.69,3.57,8.86,8.86,0,0,0,2,2.89,9.28,9.28,0,0,0,3,2,10.31,10.31,0,0,0,7.57,0,9,9,0,0,0,3-2,9.24,9.24,0,0,0,2-2.91,9.06,9.06,0,0,0,.71-3.57v-.05a9,9,0,0,0-.7-3.56,8.77,8.77,0,0,0-1.95-2.9,9.39,9.39,0,0,0-3-2,9.72,9.72,0,0,0-3.78-.72,9.85,9.85,0,0,0-3.8.72,9.06,9.06,0,0,0-5,4.9m3.37,3.51a5.85,5.85,0,0,1,.39-2.14,5.71,5.71,0,0,1,1.09-1.77,5.18,5.18,0,0,1,1.68-1.19,5.58,5.58,0,0,1,4.32,0,5.52,5.52,0,0,1,1.72,1.21,5.41,5.41,0,0,1,1.11,1.77A6,6,0,0,1,151,63.6v0a5.9,5.9,0,0,1-.39,2.15,5.6,5.6,0,0,1-1.09,1.76,4.88,4.88,0,0,1-1.69,1.19,5.58,5.58,0,0,1-4.32,0,5.43,5.43,0,0,1-1.7-1.21,5.33,5.33,0,0,1-1.12-1.77,6,6,0,0,1-.39-2.16Z"/></svg>