<?xml version="1.0" encoding="utf-8"?>
<!-- Generator: Adobe Illustrator 22.0.0, SVG Export Plug-In . SVG Version: 6.00 Build 0)  -->
<svg version="1.1" id="Capa_1" xmlns="http://www.w3.org/2000/svg" xmlns:xlink="http://www.w3.org/1999/xlink" x="0px" y="0px"
	 viewBox="0 0 155.9 155.9" style="enable-background:new 0 0 155.9 155.9;" xml:space="preserve">
<style type="text/css">
	.st0{fill:#EA1F27;}
</style>
<title>picto_1</title>
<path class="st0" d="M34.3,150.8h87.4c9.4,0,17-7.6,17-17V91.9c4.6-3.2,7.3-8.4,7.3-13.9V61c0.1-8.7-6.5-16.1-15.1-17
	c6.7-13.1,1.5-29.2-11.6-35.9c-3.7-1.9-7.9-2.9-12-2.9c-11.5,0-22.3,5.4-29.1,14.6C71.1,10.5,60.3,5.1,48.8,5.1
	c-14.7,0-26.7,12-26.6,26.8c0,4.2,1,8.3,2.9,12.1C16.5,44.9,9.9,52.3,10,61v17c0,5.6,2.7,10.8,7.3,13.9v41.9
	C17.3,143.2,24.9,150.8,34.3,150.8z M34.3,136.2c-1.3,0-2.4-1.1-2.4-2.4c0,0,0,0,0,0V94.9h38.8v41.3H34.3z M124.1,133.8L124.1,133.8
	c0,1.3-1.1,2.4-2.4,2.4c0,0,0,0,0,0H85.2V94.9h38.8L124.1,133.8z M131.4,77.9L131.4,77.9c0,0.6-0.3,1.3-0.7,1.7
	c-0.5,0.5-1.1,0.7-1.7,0.7H85.2V58.5h43.7c1.3,0,2.4,1.1,2.4,2.4c0,0,0,0,0,0L131.4,77.9z M107.1,19.7c6.7,0,12.1,5.4,12.1,12.1
	c0,6.7-5.4,12.1-12.1,12.1H85.2v-2.4C85.2,29.5,95,19.7,107.1,19.7L107.1,19.7z M48.8,19.7c12.1,0,21.8,9.8,21.8,21.8V44H48.8
	c-6.7,0-12.1-5.4-12.1-12.1S42.1,19.7,48.8,19.7z M24.5,61c0-1.3,1.1-2.4,2.4-2.4c0,0,0,0,0,0h43.7v21.8H27c-1.3,0-2.4-1.1-2.4-2.4
	V61z"/>
</svg>
