<?xml version="1.0" encoding="utf-8"?>
<!-- Generator: Adobe Illustrator 22.0.0, SVG Export Plug-In . SVG Version: 6.00 Build 0)  -->
<svg version="1.1" id="Capa_1" xmlns="http://www.w3.org/2000/svg" xmlns:xlink="http://www.w3.org/1999/xlink" x="0px" y="0px"
	 viewBox="0 0 155.9 155.9" style="enable-background:new 0 0 155.9 155.9;" xml:space="preserve">
<style type="text/css">
	.st0{fill:#EA1F27;}
</style>
<title>picto_3</title>
<path class="st0" d="M21,34.9h88.3c1.2,0.1,2.2,1.1,2.3,2.3v13.9c0,1.3-1,2.3-2.3,2.3H21c-1.2-0.1-2.2-1.1-2.3-2.3V37.2
	C18.7,35.9,19.7,34.9,21,34.9L21,34.9"/>
<rect x="83.7" y="76.7" class="st0" width="27.9" height="4.6"/>
<rect x="83.7" y="86" class="st0" width="27.9" height="4.6"/>
<rect x="83.7" y="58.1" class="st0" width="27.9" height="4.6"/>
<rect x="83.7" y="67.4" class="st0" width="27.9" height="4.6"/>
<path class="st0" d="M139.5,97.8V9.3c0-1.3-1-2.3-2.3-2.3H30.3C29,7,28,8,28,9.3v7h-7c-1.3,0-2.3,1-2.3,2.3v7h-7
	c-1.3,0-2.3,1-2.3,2.3v97.6c0,6.4,5.2,11.6,11.6,11.6h79.2c10.1,11.6,27.7,12.9,39.3,2.8c11.6-10.1,12.9-27.7,2.8-39.3
	C141.4,99.5,140.5,98.6,139.5,97.8z M83.8,95.2v4.6h16.4c-1.3,1.4-2.4,3-3.4,4.6H83.7v4.6h10.9c-0.5,1.5-0.9,3.1-1.2,4.6h-9.7v4.7
	H93c0,1.6,0.2,3.1,0.4,4.6h-9.7v4.6h10.9c0.6,1.6,1.3,3.2,2.1,4.6H21c-3.8,0-7-3.1-7-7V30.2h102.2V91c-3.8,0.6-7.5,2.1-10.7,4.2
	L83.8,95.2z M109.3,130.1v-23.2l23.2,11.6L109.3,130.1z M134.9,94.3c-1.5-0.8-3-1.6-4.6-2.1V18.6c0-1.3-1-2.3-2.3-2.3H32.6v-4.6
	h102.2L134.9,94.3z"/>
<path class="st0" d="M76.8,58.1H21c-1.3,0-2.3,1-2.3,2.3v65c0,1.3,1,2.3,2.3,2.3h55.8c1.3,0,2.3-1,2.3-2.3c0,0,0,0,0,0V60.4
	C79.1,59.1,78.1,58.1,76.8,58.1 M69.6,97.4c-1,2.7-3,4.8-5.6,5.8c-1.8,0.9-3.8,1.3-5.8,1.3c-2.3,0.2-4.6-0.8-6.1-2.6
	c-0.9-1.2-1.1-2.8-0.7-4.2c1-2.7,3-4.8,5.6-5.8c1.8-0.9,3.8-1.3,5.8-1.3V86H44.2v13.9c0.6,0.4,1.1,0.9,1.5,1.5
	c0.8,1.4,1.1,3.1,0.6,4.6c-0.9,2.7-2.9,5-5.5,6.3c-1.8,1-3.9,1.5-5.9,1.5c-2.4,0.2-4.8-0.9-6.2-2.9c-0.8-1.4-1.1-3.1-0.6-4.6
	c0.9-2.7,2.9-5,5.5-6.2c1.8-1,3.9-1.5,5.9-1.4V74.3c0-1.3,1-2.3,2.3-2.3h23.2c1.3,0,2.3,1,2.3,2.3v17.5c0.5,0.3,1,0.8,1.4,1.3
	C69.7,94.4,70,95.9,69.6,97.4z"/>
<rect x="44.2" y="76.7" class="st0" width="18.6" height="4.6"/>
</svg>
