<?xml version="1.0" encoding="utf-8"?>
<!-- Generator: Adobe Illustrator 22.0.0, SVG Export Plug-In . SVG Version: 6.00 Build 0)  -->
<svg version="1.1" id="Capa_1" xmlns="http://www.w3.org/2000/svg" xmlns:xlink="http://www.w3.org/1999/xlink" x="0px" y="0px"
	 viewBox="0 0 155.9 155.9" style="enable-background:new 0 0 155.9 155.9;" xml:space="preserve">
<style type="text/css">
	.st0{fill:#EA1F27;}
</style>
<title>picto_2</title>
<path class="st0" d="M151.6,5.2H6.2v105.6h145.4V5.2z M88.8,104.8H68.9c-1.1,0.1-2.1-0.8-2.1-1.9s0.8-2.1,1.9-2.1c0.1,0,0.2,0,0.3,0
	h19.9c1.1-0.1,2.1,0.8,2.1,1.9c0.1,1.1-0.8,2.1-1.9,2.1C89,104.9,88.9,104.9,88.8,104.8 M145.6,92.9c0,1.1-0.9,2-2,2H14.1
	c-1.1,0-2-0.9-2-2V13.2c0-1.1,0.9-2,2-2l0,0h129.5c1.1,0,2,0.9,2,2c0,0,0,0,0,0L145.6,92.9z"/>
<path class="st0" d="M127.1,83.6c2.3,1.2,4.6,2.3,6.6,2.3h3V50.1h-3c-3,0-5.7-1.4-8.4-2.7c-2.4-1.2-4.6-2.3-6.6-2.3
	c-3,0-6.4,2.4-8,3.8v34.9c2.1-1.4,5-2.8,8-2.8C121.7,80.9,124.4,82.3,127.1,83.6L127.1,83.6z"/>
<path class="st0" d="M16.1,90.9h125.5V15.2H16.1V90.9z M17.1,23.2c0-1.1,0.9-2,2-2c0,0,0,0,0,0h5c2,0,4.2-1.1,6.6-2.3
	c2.7-1.3,5.4-2.7,8.4-2.7c4.1,0,8,2.7,10,4.3c2-1.6,5.9-4.3,10-4.3c3,0,5.7,1.4,8.4,2.7c2.3,1.2,4.6,2.3,6.6,2.3h5c1.1,0,2,0.9,2,2
	v14.6l7.1,1c1.1,0.1,1.8,1.1,1.7,2.2c-0.1,0.4-0.3,0.8-0.6,1.1l-3.8,3.8c1.8-0.5,3.5-1.2,5.1-2.1c2.7-1.3,5.4-2.7,8.4-2.7
	c4.1,0,8,2.7,10,4.3c2-1.6,5.9-4.3,10-4.3c3,0,5.7,1.4,8.4,2.7c2.3,1.2,4.6,2.3,6.6,2.3h5c1.1,0,2,0.9,2,2l0,0v39.8c0,1.1-0.9,2-2,2
	l0,0h-5c-3,0-5.7-1.4-8.4-2.7c-2.4-1.2-4.6-2.3-6.6-2.3c-3.4,0-7.3,3.2-8.6,4.4c-0.2,0.2-0.4,0.3-0.7,0.4c-0.1,0-0.1,0-0.2,0
	c-0.2,0.1-0.4,0.1-0.6,0.1c-0.1,0-0.2,0-0.3-0.1c-0.2,0-0.3,0-0.5-0.1l0,0c-0.2-0.1-0.4-0.2-0.6-0.4h-0.1c-1.2-1.2-5.2-4.4-8.6-4.4
	c-2,0-4.2,1.1-6.6,2.3c-2.7,1.3-5.4,2.7-8.4,2.7h-5c-1.1,0-2-0.9-2-2v0V65h-3c-2.1-0.1-4.2-0.6-6.1-1.6c-0.5,0.4-1.2,0.5-1.8,0.4
	c-0.7-0.2-1.2-0.9-1.3-1.6v-0.3c-2-1-3.8-1.8-5.6-1.8c-3.4,0-7.3,3.2-8.5,4.4c-0.2,0.2-0.4,0.3-0.7,0.4h-0.2
	c-0.2,0.1-0.4,0.1-0.6,0.1c-0.1,0-0.2,0-0.2-0.1c-0.2,0-0.3,0-0.5-0.1l0,0c-0.2-0.1-0.4-0.2-0.6-0.4h-0.1c-1.2-1.2-5.2-4.4-8.5-4.4
	c-2,0-4.2,1.1-6.6,2.3c-2.7,1.3-5.4,2.7-8.4,2.7h-5.1c-1.1,0-2-0.9-2-2l0,0L17.1,23.2z"/>
<path class="st0" d="M96.7,61.9c0,0.5-0.2,1-0.6,1.4l-7,7c-0.4,0.4-0.9,0.6-1.4,0.6c-0.5,0-1-0.2-1.4-0.6l-5.4-5.4v21h3
	c2,0,4.2-1.1,6.6-2.3c2.7-1.3,5.4-2.7,8.4-2.7c3,0,5.8,1.4,8,2.8V48.9c-1.6-1.4-5-3.9-8-3.9c-2,0-4.2,1.1-6.6,2.3
	c-2.1,1.2-4.3,2-6.6,2.5l10.5,10.5C96.5,60.8,96.7,61.3,96.7,61.9z"/>
<path class="st0" d="M91.9,143l-4.2-25.4l-0.5-2.9H70.6l-0.5,2.9L65.9,143c-0.2,1-1,1.7-2,1.7H44.8l-6,6h80l-5.9-6H93.8
	C92.8,144.7,92,144,91.9,143L91.9,143z"/>
<path class="st0" d="M65.4,39.6L68,57.7l4.2-4.2c0.4-0.4,0.9-0.6,1.4-0.6c0.5,0,1,0.2,1.4,0.6l1.9,1.9l4,4l6.8,6.8l4.2-4.2
	L79.2,49.2c-0.8-0.8-0.8-2,0-2.8l0.3-0.3l1.4-1.4l2.6-2.6l-2.6-0.4l-4-0.6L65.4,39.6z"/>
<path class="st0" d="M30.7,58.7c2.7-1.3,5.4-2.7,8.4-2.7s5.9,1.4,8,2.8V24c-1.6-1.4-5-3.9-8-3.9c-2,0-4.2,1.1-6.6,2.3
	c-2.7,1.3-5.4,2.7-8.4,2.7h-3V61h3C26.1,61,28.3,59.9,30.7,58.7z"/>
<path class="st0" d="M70.9,60.4c1,0.4,2,0.6,3,0.7h3v-0.1l-3.3-3.3L70.9,60.4z"/>
<path class="st0" d="M63.9,57.1l-2.8-19.6c-0.1-0.6,0.1-1.3,0.6-1.7c0.4-0.4,1.1-0.7,1.7-0.6l13.6,1.9v-12h-3c-3,0-5.7-1.4-8.4-2.7
	c-2.3-1.2-4.6-2.3-6.6-2.3c-3,0-6.4,2.4-8,3.9v34.9c2.1-1.4,5-2.8,8-2.8C60.7,56.1,62.3,56.5,63.9,57.1z"/>
</svg>
