<?xml version="1.0" encoding="utf-8"?>
<!-- Generator: Adobe Illustrator 22.0.0, SVG Export Plug-In . SVG Version: 6.00 Build 0)  -->
<svg version="1.1" id="Capa_1" xmlns="http://www.w3.org/2000/svg" xmlns:xlink="http://www.w3.org/1999/xlink" x="0px" y="0px"
	 viewBox="0 0 141.7 141.7" style="enable-background:new 0 0 141.7 141.7;" xml:space="preserve">
<style type="text/css">
	.st0{fill-rule:evenodd;clip-rule:evenodd;fill:#EA1F27;}
</style>
<path class="st0" d="M7.3,18.3v116.1c0,2.4,2,4.4,4.4,4.4H130c2.4,0,4.4-2,4.4-4.4V18.3c0-2.4-2-4.4-4.4-4.4h-11V7.3
	c0-2.4-2-4.4-4.4-4.4c-2.4,0-4.4,2-4.4,4.4v6.6H97.2V7.3c0-2.4-2-4.4-4.4-4.4c-2.4,0-4.4,2-4.4,4.4v6.6H75.2V7.3
	c0-2.4-2-4.4-4.4-4.4s-4.4,2-4.4,4.4v6.6H53.3V7.3c0-2.4-2-4.4-4.4-4.4c-2.4,0-4.4,2-4.4,4.4v6.6H31.4V7.3c0-2.4-2-4.4-4.4-4.4
	c-2.4,0-4.4,2-4.4,4.4v6.6h-11C9.3,13.9,7.3,15.9,7.3,18.3 M125.6,44.6H16.1V130h109.5V44.6z M125.6,35.8V22.7h-6.6v4.4
	c0,2.4-2,4.4-4.4,4.4c-2.4,0-4.4-2-4.4-4.4v-4.4H97.2v4.4c0,2.4-2,4.4-4.4,4.4c-2.4,0-4.4-2-4.4-4.4v-4.4H75.2v4.4
	c0,2.4-2,4.4-4.4,4.4s-4.4-2-4.4-4.4v-4.4H53.3v4.4c0,2.4-2,4.4-4.4,4.4c-2.4,0-4.4-2-4.4-4.4v-4.4H31.4v4.4c0,2.4-2,4.4-4.4,4.4
	c-2.4,0-4.4-2-4.4-4.4v-4.4h-6.6v13.1H125.6z"/>
<path class="st0" d="M31.4,66.5h13.1c2.4,0,4.4-2,4.4-4.4c0-2.4-2-4.4-4.4-4.4H31.4c-2.4,0-4.4,2-4.4,4.4
	C27.1,64.5,29,66.5,31.4,66.5"/>
<path class="st0" d="M31.4,84h13.1c2.4,0,4.4-2,4.4-4.4c0-2.4-2-4.4-4.4-4.4H31.4c-2.4,0-4.4,2-4.4,4.4C27.1,82,29,84,31.4,84"/>
<path class="st0" d="M31.4,101.5h13.1c2.4,0,4.4-2,4.4-4.4c0-2.4-2-4.4-4.4-4.4H31.4c-2.4,0-4.4,2-4.4,4.4
	C27.1,99.6,29,101.5,31.4,101.5"/>
<path class="st0" d="M31.4,119.1h13.1c2.4,0,4.4-2,4.4-4.4c0-2.4-2-4.4-4.4-4.4H31.4c-2.4,0-4.4,2-4.4,4.4
	C27.1,117.1,29,119.1,31.4,119.1"/>
<path class="st0" d="M64.3,66.5h13.1c2.4,0,4.4-2,4.4-4.4c0-2.4-2-4.4-4.4-4.4H64.3c-2.4,0-4.4,2-4.4,4.4
	C59.9,64.5,61.9,66.5,64.3,66.5"/>
<path class="st0" d="M64.3,84h13.1c2.4,0,4.4-2,4.4-4.4c0-2.4-2-4.4-4.4-4.4H64.3c-2.4,0-4.4,2-4.4,4.4C59.9,82,61.9,84,64.3,84"/>
<path class="st0" d="M64.3,101.5h13.1c2.4,0,4.4-2,4.4-4.4c0-2.4-2-4.4-4.4-4.4H64.3c-2.4,0-4.4,2-4.4,4.4
	C59.9,99.6,61.9,101.5,64.3,101.5"/>
<path class="st0" d="M64.3,119.1h13.1c2.4,0,4.4-2,4.4-4.4c0-2.4-2-4.4-4.4-4.4H64.3c-2.4,0-4.4,2-4.4,4.4
	C59.9,117.1,61.9,119.1,64.3,119.1"/>
<path class="st0" d="M97.2,66.5h13.1c2.4,0,4.4-2,4.4-4.4c0-2.4-2-4.4-4.4-4.4H97.2c-2.4,0-4.4,2-4.4,4.4
	C92.8,64.5,94.7,66.5,97.2,66.5"/>
<path class="st0" d="M97.2,84h13.1c2.4,0,4.4-2,4.4-4.4c0-2.4-2-4.4-4.4-4.4H97.2c-2.4,0-4.4,2-4.4,4.4C92.8,82,94.7,84,97.2,84"/>
<path class="st0" d="M97.2,101.5h13.1c2.4,0,4.4-2,4.4-4.4c0-2.4-2-4.4-4.4-4.4H97.2c-2.4,0-4.4,2-4.4,4.4
	C92.8,99.6,94.7,101.5,97.2,101.5"/>
</svg>
